<?xml version="1.0" encoding="utf-8"?>
<!-- Generator: Adobe Illustrator 21.0.0, SVG Export Plug-In . SVG Version: 6.00 Build 0)  -->
<svg version="1.1" id="图层_1" xmlns="http://www.w3.org/2000/svg" xmlns:xlink="http://www.w3.org/1999/xlink" x="0px" y="0px"
	 viewBox="0 0 96 97" style="enable-background:new 0 0 96 97;" xml:space="preserve">
<style type="text/css">
	.st0{fill:#F9FAFB;}
	.st1{fill:#3DB7B7;}
	.st2{fill:#2F67C1;}
</style>
<circle class="st0" cx="48" cy="48.3" r="47"/>
<g>
	<path class="st1" d="M26.6,78.2V17.1h20.8c20.2,0.2,30.5,10.5,30.7,30.7C77.9,68,67.7,78.2,47.4,78.2H26.6z M39.5,27.3v40.6h6.9
		c12.1,0.4,18-6.3,17.8-20.1c0.2-13.9-5.7-20.7-17.8-20.5H39.5z"/>
</g>
<g>
	<path class="st2" d="M21.1,80.5V21.2h20.2C61,21.4,70.9,31.3,71.2,51C70.9,70.7,61,80.5,41.3,80.5H21.1z M33.6,31.1v39.4h6.7
		C52.1,71,57.9,64.5,57.7,51c0.2-13.5-5.6-20.1-17.3-19.9H33.6z"/>
</g>
</svg>
